<?xml version="1.0" encoding="utf-8"?>
<!-- Generator: Adobe Illustrator 27.0.0, SVG Export Plug-In . SVG Version: 6.00 Build 0)  -->
<svg version="1.1" xmlns="http://www.w3.org/2000/svg" xmlns:xlink="http://www.w3.org/1999/xlink" x="0px" y="0px"
	 viewBox="0 0 115.7 125" style="enable-background:new 0 0 115.7 125;" xml:space="preserve">
<style type="text/css">
	.st0{fill:#D6D3C2;}
	.st1{fill:#212121;}
	.st2{fill:#FFB656;}
	.st3{fill:#1D7874;}
	.st4{fill:#EF476F;}
	.st5{fill:none;stroke:#FFFFFF;stroke-width:6;stroke-linecap:round;stroke-linejoin:round;stroke-miterlimit:10;}
	.st6{fill:#FFFFFF;}
	.st7{opacity:0.5;}
	.st8{opacity:0.25;}
	.st9{opacity:0.75;}
	.st10{fill:#FFFFFF;stroke:#D6D3C2;stroke-width:0.5;stroke-miterlimit:10;}
	.st11{fill-rule:evenodd;clip-rule:evenodd;fill:#FFFFFF;}
	.st12{fill-rule:evenodd;clip-rule:evenodd;fill:#D6D3C2;}
	.st13{opacity:0.9;}
	.st14{fill:none;stroke:#FFB656;stroke-width:3;stroke-miterlimit:10;}
	.st15{fill:#E53869;}
	.st16{opacity:0.15;}
	.st17{fill:none;stroke:#EF476F;stroke-miterlimit:10;}
	.st18{opacity:0.65;fill:#FFFFFF;stroke:#212121;stroke-width:2;stroke-miterlimit:10;}
	.st19{opacity:0.5;fill:#FFFFFF;}
	.st20{opacity:0.5;fill:none;stroke:#EF476F;stroke-miterlimit:10;}
	.st21{fill:#DB2857;}
	.st22{opacity:0.35;fill:none;stroke:#FFFFFF;stroke-miterlimit:10;}
</style>
<g id="Layer_1">
</g>
<g id="Layer_2">
	<g>
		<path class="st1" d="M17.1,115.6c2-1.8,3-4.4,3-7.6V72.4h-10C3.8,72.4,0,76.2,0,82.4V125h20.5v-8.5H16L17.1,115.6z M11.1,116.3
			c0,1.1-0.5,1.7-1.2,1.7H9V82.4c0-1.1,0.5-1.8,1.2-1.8h1V116.3z"/>
		<path class="st1" d="M39.4,108.7c1.9-1.8,3-4.3,3-7.1V88.3l-3.3,2l3.3-8.1v-9.8H22.3V125h9v-10.7h2.3V125h9v-15.4h-4L39.4,108.7z
			 M33.4,104.5c0,0.7-0.4,1.5-1,1.5h-1.2V80.6h2.2V104.5z"/>
		<path class="st1" d="M63.4,83.3C63.4,83.3,63.4,83.3,63.4,83.3c-0.3,0.2-0.5,0.3-0.7,0.5c-0.8,0.7-1.8,1-2.8,1
			c-1.6,0-3.1-0.8-3.9-2.2c-0.5-0.8-0.6-1.6-0.6-2.5c-2.5,1.7-4.5,3-5.4,3.5L44.5,87v38h6.3V92.5h1.9V125h5.9V92.5h1.9V125h6.3V82
			c0,0,0,0,0,0C65.2,82.4,64.1,82.9,63.4,83.3z"/>
		<path class="st1" d="M69.6,81.5c-0.6,1.1-1,2.4-1,4V125h7.1c4.6,0,7.3-2.7,7.3-7.2V81.8c-2.9-0.3-5.8-0.5-8.5-0.5
			C72.6,81.2,71,81.3,69.6,81.5z M74.9,93.9c0-0.9,0.4-1.5,1-1.5h0.9v25.4c0,0.8-0.4,1.4-1,1.4h-0.9V93.9z"/>
		<path class="st1" d="M97.2,113.1c1.4-1.3,2.1-3.1,2.1-5.1V84.7c-4.5-1-9.5-2-14.5-2.7v43h6.3v-7.9h1.9v7.9h6.3v-11h-3.2
			L97.2,113.1z M93.1,110.1c0,0.6-0.3,1.3-0.9,1.3h-1V92.5h1.9V110.1z"/>
		<path class="st1" d="M115,88.9l-0.7-0.2c-0.9-0.3-2.6-0.8-4.8-1.4v24.1h-1.9V86.8c-1.9-0.5-4-1.1-6.3-1.6v32h8.2v0.7
			c0,0.7-0.4,1.2-1,1.2h-7.2v6h7.1c4.5,0,7.3-2.7,7.3-7.2V88.9c0,0-0.1,0-0.1,0H115z"/>
		<path class="st1" d="M60.8,22.3c0.1,0.1,0.3,0.2,0.5,0.1c2.6-0.7,5.2-1,7.6-1c0.3,0,0.5-0.3,0.5-0.6l-1.2-5
			C68,15.3,68.7,15,69,15.4l3.7,6.1c0.1,0.1,0.2,0.2,0.3,0.2c3.3,0.6,6.4,1.8,9,3.6c0.2,0.1,0.4,0.1,0.6,0l3.6-3.2
			c0.4-0.4,1,0.1,0.7,0.6l-2.5,4.1c-0.1,0.2-0.1,0.4,0.1,0.6c3.1,2.8,5.3,6.5,6.5,10.7c0,0.2,0.2,0.3,0.4,0.3l3.4,0.6
			c0.5,0.1,0.5,0.9,0,0.9l-2.7,0.4c-0.3,0-0.4,0.3-0.4,0.5c0.8,5,0.2,10.5-2.2,16.3c-0.1,0.2,0,0.3,0.1,0.5
			c3.1,3.9,9.8,10.6,13.7,13.8c0.4,0.3,0.9-0.1,0.8-0.5c-1.6-4.5-1.1-11.3-0.1-15.5c0-0.2,0-0.3-0.1-0.4l-4.3-4.5
			c-0.4-0.4,0.1-1,0.6-0.7l4.1,2.3c0.3,0.2,0.6,0,0.7-0.3c2-8.8,1.6-17.4-0.9-25c-0.1-0.2-0.3-0.3-0.5-0.3L97.6,27
			c-0.5,0.1-0.7-0.7-0.2-0.9l5-2.2c0.2-0.1,0.4-0.4,0.3-0.6c-2.5-6-6.4-11.2-11.5-15.2c-0.2-0.1-0.4-0.1-0.6,0l-0.3,0.3
			c-0.4,0.4-1-0.1-0.7-0.6l0.2-0.3c0.1-0.2,0.1-0.5-0.1-0.6c-0.3-0.2-0.6-0.4-0.9-0.6c-0.2-0.1-0.5-0.1-0.7,0.2l-2.2,3.7
			c-0.3,0.5-1,0.2-0.9-0.3L86,5.2c0-0.2,0-0.4-0.2-0.5c-8.5-4.5-19.3-6-32.1-3.2c-0.3,0.1-0.5,0.4-0.3,0.7l2.4,5.1
			C56,7.7,55.4,8.1,55,7.7l-4.8-5.2c-0.1-0.1-0.3-0.2-0.5-0.1c-1.6,0.4-3.2,1-4.8,1.5c-0.3,0.1-0.4,0.5-0.2,0.8L60.8,22.3z"/>
		<path class="st1" d="M76,49.3c2,0.1,4.5,0.5,7.3,1.5c1.3-1.2,1.7-6.2,2-9.5l0,0c-17.5-1.7-30.5-13.9-33.9-17.8
			c-0.3-0.4-1-0.2-1.1,0.3c-1.2,4.4-5.1,20.1-5.4,28.5c-0.1,1.9,2.1,3.1,3.7,1.9c0,0-2.3-5-0.2-9.5c0,0,0,0,0,0
			c1.1-2.1,3.1-3.6,5.5-3.9l10.6-1.5l-8.9,5.6c-7.1,5-3.5,12.2-3.5,16.3c0,4.2-1.1,11.3-4.2,18.9C48,80,65.9,68.9,69.5,61.2
			c0,0-0.1-0.1-0.2-0.2C65.9,55.8,69.8,49,76,49.3z"/>
		<path class="st1" d="M115.9,84.2c-1.7-2.5-3.7-4.9-5.8-6.9c0,0-0.1-0.1-0.1-0.1c-6-2.1-11.4-5.5-15.9-10c-2.6-2.6-5.2-5.4-6.9-7.5
			c-0.1-0.1-0.2-0.1-0.3-0.1c-6.8,0.3-13.1,4.2-16.3,6.5c-0.3,0.2-0.1,0.7,0.3,0.6c6.3-2.3,15.1-1.2,20.1,1.7
			c0.3,0.2,0.2,0.6-0.2,0.6c-4.3-0.4-18.3-1.3-25.3,3.5c-2.4,1.6-4.7,5.5-5.9,7.7c-0.2,0.3,0.2,0.6,0.5,0.4
			c11.3-9.1,49.2,2.2,55.5,4.2C115.8,84.8,116.1,84.5,115.9,84.2z"/>
	</g>
</g>
<g id="Layer_3">
</g>
</svg>
